<svg width="461" height="461" viewBox="0 0 461 461" fill="none" xmlns="http://www.w3.org/2000/svg">
<rect x="24" y="94" width="280" height="280" fill="black"/>
<path d="M352 22C365.255 22 376 32.7452 376 46V268C376 281.255 365.255 292 352 292H130C116.745 292 106 281.255 106 268V46C106 32.7452 116.745 22 130 22H352ZM142 58V256H340V58H142Z" fill="white"/>
<path d="M193.96 446H187.72L182.88 426.56H182.8L178.04 446H171.68L164.12 417.44H170.4L174.92 436.88H175L179.96 417.44H185.84L190.72 437.12H190.8L195.48 417.44H201.64L193.96 446ZM210.209 431.68C210.289 430.347 210.622 429.24 211.209 428.36C211.796 427.48 212.542 426.773 213.449 426.24C214.356 425.707 215.369 425.333 216.489 425.12C217.636 424.88 218.782 424.76 219.929 424.76C220.969 424.76 222.022 424.84 223.089 425C224.156 425.133 225.129 425.413 226.009 425.84C226.889 426.267 227.609 426.867 228.169 427.64C228.729 428.387 229.009 429.387 229.009 430.64V441.4C229.009 442.333 229.062 443.227 229.169 444.08C229.276 444.933 229.462 445.573 229.729 446H223.969C223.862 445.68 223.769 445.36 223.689 445.04C223.636 444.693 223.596 444.347 223.569 444C222.662 444.933 221.596 445.587 220.369 445.96C219.142 446.333 217.889 446.52 216.609 446.52C215.622 446.52 214.702 446.4 213.849 446.16C212.996 445.92 212.249 445.547 211.609 445.04C210.969 444.533 210.462 443.893 210.089 443.12C209.742 442.347 209.569 441.427 209.569 440.36C209.569 439.187 209.769 438.227 210.169 437.48C210.596 436.707 211.129 436.093 211.769 435.64C212.436 435.187 213.182 434.853 214.009 434.64C214.862 434.4 215.716 434.213 216.569 434.08C217.422 433.947 218.262 433.84 219.089 433.76C219.916 433.68 220.649 433.56 221.289 433.4C221.929 433.24 222.436 433.013 222.809 432.72C223.182 432.4 223.356 431.947 223.329 431.36C223.329 430.747 223.222 430.267 223.009 429.92C222.822 429.547 222.556 429.267 222.209 429.08C221.889 428.867 221.502 428.733 221.049 428.68C220.622 428.6 220.156 428.56 219.649 428.56C218.529 428.56 217.649 428.8 217.009 429.28C216.369 429.76 215.996 430.56 215.889 431.68H210.209ZM223.329 435.88C223.089 436.093 222.782 436.267 222.409 436.4C222.062 436.507 221.676 436.6 221.249 436.68C220.849 436.76 220.422 436.827 219.969 436.88C219.516 436.933 219.062 437 218.609 437.08C218.182 437.16 217.756 437.267 217.329 437.4C216.929 437.533 216.569 437.72 216.249 437.96C215.956 438.173 215.716 438.453 215.529 438.8C215.342 439.147 215.249 439.587 215.249 440.12C215.249 440.627 215.342 441.053 215.529 441.4C215.716 441.747 215.969 442.027 216.289 442.24C216.609 442.427 216.982 442.56 217.409 442.64C217.836 442.72 218.276 442.76 218.729 442.76C219.849 442.76 220.716 442.573 221.329 442.2C221.942 441.827 222.396 441.387 222.689 440.88C222.982 440.347 223.156 439.813 223.209 439.28C223.289 438.747 223.329 438.32 223.329 438V435.88ZM246.218 435.68C246.218 436.507 246.298 437.32 246.458 438.12C246.618 438.893 246.884 439.6 247.258 440.24C247.658 440.853 248.164 441.347 248.778 441.72C249.418 442.093 250.204 442.28 251.138 442.28C252.071 442.28 252.844 442.107 253.458 441.76C254.098 441.387 254.604 440.907 254.978 440.32C255.378 439.707 255.658 439.013 255.818 438.24C256.004 437.44 256.098 436.613 256.098 435.76C256.098 434.96 256.004 434.16 255.818 433.36C255.658 432.56 255.391 431.84 255.018 431.2C254.644 430.56 254.138 430.04 253.498 429.64C252.884 429.24 252.138 429.04 251.258 429.04C250.324 429.04 249.538 429.227 248.898 429.6C248.258 429.973 247.738 430.48 247.338 431.12C246.938 431.733 246.644 432.44 246.458 433.24C246.298 434.013 246.218 434.827 246.218 435.68ZM261.578 453.24H255.898V443.4H255.818C255.151 444.52 254.218 445.32 253.018 445.8C251.818 446.28 250.578 446.52 249.298 446.52C248.338 446.52 247.338 446.347 246.298 446C245.284 445.627 244.351 445.027 243.498 444.2C242.644 443.347 241.938 442.24 241.378 440.88C240.818 439.493 240.538 437.8 240.538 435.8C240.538 434.387 240.724 433.013 241.098 431.68C241.471 430.347 242.044 429.173 242.818 428.16C243.591 427.12 244.551 426.293 245.698 425.68C246.871 425.067 248.244 424.76 249.818 424.76C251.098 424.76 252.298 425.013 253.418 425.52C254.564 426 255.458 426.813 256.098 427.96H256.178V425.32H261.578V453.24ZM293.271 446H287.871V443.12H287.751C287.031 444.32 286.098 445.187 284.951 445.72C283.804 446.253 282.631 446.52 281.431 446.52C279.911 446.52 278.658 446.32 277.671 445.92C276.711 445.52 275.951 444.96 275.391 444.24C274.831 443.493 274.431 442.6 274.191 441.56C273.978 440.493 273.871 439.32 273.871 438.04V425.32H279.551V437C279.551 438.707 279.818 439.987 280.351 440.84C280.884 441.667 281.831 442.08 283.191 442.08C284.738 442.08 285.858 441.627 286.551 440.72C287.244 439.787 287.591 438.267 287.591 436.16V425.32H293.271V446Z" fill="black"/>
</svg>
