<svg width="400" height="461" viewBox="0 0 400 461" fill="none" xmlns="http://www.w3.org/2000/svg">
<rect x="24" y="94" width="280" height="280" fill="black"/>
<path d="M352 22C365.255 22 376 32.7452 376 46V268C376 281.255 365.255 292 352 292H130C116.745 292 106 281.255 106 268V46C106 32.7452 116.745 22 130 22H352ZM142 58V256H340V58H142Z" fill="white"/>
<path d="M163.96 446H157.72L152.88 426.56H152.8L148.04 446H141.68L134.12 417.44H140.4L144.92 436.88H145L149.96 417.44H155.84L160.72 437.12H160.8L165.48 417.44H171.64L163.96 446ZM180.209 431.68C180.289 430.347 180.622 429.24 181.209 428.36C181.796 427.48 182.542 426.773 183.449 426.24C184.356 425.707 185.369 425.333 186.489 425.12C187.636 424.88 188.782 424.76 189.929 424.76C190.969 424.76 192.022 424.84 193.089 425C194.156 425.133 195.129 425.413 196.009 425.84C196.889 426.267 197.609 426.867 198.169 427.64C198.729 428.387 199.009 429.387 199.009 430.64V441.4C199.009 442.333 199.062 443.227 199.169 444.08C199.276 444.933 199.462 445.573 199.729 446H193.969C193.862 445.68 193.769 445.36 193.689 445.04C193.636 444.693 193.596 444.347 193.569 444C192.662 444.933 191.596 445.587 190.369 445.96C189.142 446.333 187.889 446.52 186.609 446.52C185.622 446.52 184.702 446.4 183.849 446.16C182.996 445.92 182.249 445.547 181.609 445.04C180.969 444.533 180.462 443.893 180.089 443.12C179.742 442.347 179.569 441.427 179.569 440.36C179.569 439.187 179.769 438.227 180.169 437.48C180.596 436.707 181.129 436.093 181.769 435.64C182.436 435.187 183.182 434.853 184.009 434.64C184.862 434.4 185.716 434.213 186.569 434.08C187.422 433.947 188.262 433.84 189.089 433.76C189.916 433.68 190.649 433.56 191.289 433.4C191.929 433.24 192.436 433.013 192.809 432.72C193.182 432.4 193.356 431.947 193.329 431.36C193.329 430.747 193.222 430.267 193.009 429.92C192.822 429.547 192.556 429.267 192.209 429.08C191.889 428.867 191.502 428.733 191.049 428.68C190.622 428.6 190.156 428.56 189.649 428.56C188.529 428.56 187.649 428.8 187.009 429.28C186.369 429.76 185.996 430.56 185.889 431.68H180.209ZM193.329 435.88C193.089 436.093 192.782 436.267 192.409 436.4C192.062 436.507 191.676 436.6 191.249 436.68C190.849 436.76 190.422 436.827 189.969 436.88C189.516 436.933 189.062 437 188.609 437.08C188.182 437.16 187.756 437.267 187.329 437.4C186.929 437.533 186.569 437.72 186.249 437.96C185.956 438.173 185.716 438.453 185.529 438.8C185.342 439.147 185.249 439.587 185.249 440.12C185.249 440.627 185.342 441.053 185.529 441.4C185.716 441.747 185.969 442.027 186.289 442.24C186.609 442.427 186.982 442.56 187.409 442.64C187.836 442.72 188.276 442.76 188.729 442.76C189.849 442.76 190.716 442.573 191.329 442.2C191.942 441.827 192.396 441.387 192.689 440.88C192.982 440.347 193.156 439.813 193.209 439.28C193.289 438.747 193.329 438.32 193.329 438V435.88ZM216.218 435.68C216.218 436.507 216.298 437.32 216.458 438.12C216.618 438.893 216.884 439.6 217.258 440.24C217.658 440.853 218.164 441.347 218.778 441.72C219.418 442.093 220.204 442.28 221.138 442.28C222.071 442.28 222.844 442.107 223.458 441.76C224.098 441.387 224.604 440.907 224.978 440.32C225.378 439.707 225.658 439.013 225.818 438.24C226.004 437.44 226.098 436.613 226.098 435.76C226.098 434.96 226.004 434.16 225.818 433.36C225.658 432.56 225.391 431.84 225.018 431.2C224.644 430.56 224.138 430.04 223.498 429.64C222.884 429.24 222.138 429.04 221.258 429.04C220.324 429.04 219.538 429.227 218.898 429.6C218.258 429.973 217.738 430.48 217.338 431.12C216.938 431.733 216.644 432.44 216.458 433.24C216.298 434.013 216.218 434.827 216.218 435.68ZM231.578 453.24H225.898V443.4H225.818C225.151 444.52 224.218 445.32 223.018 445.8C221.818 446.28 220.578 446.52 219.298 446.52C218.338 446.52 217.338 446.347 216.298 446C215.284 445.627 214.351 445.027 213.498 444.2C212.644 443.347 211.938 442.24 211.378 440.88C210.818 439.493 210.538 437.8 210.538 435.8C210.538 434.387 210.724 433.013 211.098 431.68C211.471 430.347 212.044 429.173 212.818 428.16C213.591 427.12 214.551 426.293 215.698 425.68C216.871 425.067 218.244 424.76 219.818 424.76C221.098 424.76 222.298 425.013 223.418 425.52C224.564 426 225.458 426.813 226.098 427.96H226.178V425.32H231.578V453.24ZM263.271 446H257.871V443.12H257.751C257.031 444.32 256.098 445.187 254.951 445.72C253.804 446.253 252.631 446.52 251.431 446.52C249.911 446.52 248.658 446.32 247.671 445.92C246.711 445.52 245.951 444.96 245.391 444.24C244.831 443.493 244.431 442.6 244.191 441.56C243.978 440.493 243.871 439.32 243.871 438.04V425.32H249.551V437C249.551 438.707 249.818 439.987 250.351 440.84C250.884 441.667 251.831 442.08 253.191 442.08C254.738 442.08 255.858 441.627 256.551 440.72C257.244 439.787 257.591 438.267 257.591 436.16V425.32H263.271V446Z" fill="black"/>
</svg>
